HIERARCHY
ROOT Hips
{
	OFFSET 0.000000 0.000000 0.000000 
	CHANNELS 6 Xposition Yposition Zposition Yrotation Zrotation Xrotation 
	JOINT Lumbar
	{
		OFFSET 0.000000 0.000000 0.000000 
		CHANNELS 3 Zrotation Xrotation Yrotation
		JOINT Neck
		{
			OFFSET 0.000000 0.445665 0.000000 
			CHANNELS 3 Zrotation Xrotation Yrotation
			End Site
			{
				OFFSET 0.000000 0.227535 0.000000 
			}
		}
		JOINT RightShoulder
		{
			OFFSET 0.019635 0.377685 0.194865 
			CHANNELS 3 Zrotation Xrotation Yrotation
			JOINT RightElbow
			{
				OFFSET 0.000000 -0.243375 0.000000 
				CHANNELS 2 Zrotation Yrotation
				JOINT RightWrist
				{
					OFFSET 0.000000 -0.264825 0.000000 
					CHANNELS 2 Zrotation Xrotation
					End Site
					{
						OFFSET 0.006600 -0.176220 0.000990 
					}
				}
			}
		}
		JOINT LeftShoulder
		{
			OFFSET 0.019635 0.377685 -0.194865 
			CHANNELS 3 Zrotation Xrotation Yrotation
			JOINT LeftElbow
			{
				OFFSET 0.000000 -0.243375 0.000000 
				CHANNELS 2 Zrotation Yrotation
				JOINT LeftWrist
				{
					OFFSET 0.000000 -0.264825 0.000000 
					CHANNELS 2 Zrotation Xrotation
					End Site
					{
						OFFSET 0.006600 -0.176220 -0.000990 
					}
				}
			}
		}
	}
	JOINT RightHip
	{
		OFFSET 0.052140 -0.069960 0.075570 
		CHANNELS 3 Zrotation Xrotation Yrotation
		JOINT RightKnee
		{
			OFFSET 0.000000 -0.402270 0.000000 
			CHANNELS 1 Zrotation
			JOINT RightAnkle
			{
				OFFSET 0.000000 -0.404085 0.000000 
				CHANNELS 3 Zrotation Xrotation Yrotation
				End Site
				{
					OFFSET 0.204105 -0.089430 0.008415 
				}
			}
		}
	}
	JOINT LeftHip
	{
		OFFSET 0.052140 -0.069960 -0.075570 
		CHANNELS 3 Zrotation Xrotation Yrotation
		JOINT LeftKnee
		{
			OFFSET 0.000000 -0.402270 0.000000 
			CHANNELS 1 Zrotation
			JOINT LeftAnkle
			{
				OFFSET 0.000000 -0.404085 0.000000 
				CHANNELS 3 Zrotation Xrotation Yrotation
				End Site
				{
					OFFSET 0.204105 -0.089430 -0.008415 
				}
			}
		}
	}
}
MOTION
Frames: 25
Frame Time: 0.02
0.00055 5e-05 -0.00011 21.55147 -32.64105 -2.89179 56.50928 1.0309 1.94447 -6.13294 -2.45864 -0.13804 107.83865 -75.62514 -89.99955 11.57616 103.79975 -5.27023 -6.58917 135.16573 74.69052 90.35612 10.88416 -99.68111 -3.35783 10.28946 47.63372 0.30832 2.75662 -19.22828 -8.38919 -5.43714 -3.68489 51.42811 -0.02275 1.90561 -24.54969 -8.45179 5.19339 3.48527
0.0007 7e-05 0.0001 21.59151 -32.66785 -2.92646 56.50307 0.98943 1.86786 -6.08305 -2.40496 -0.13784 107.69366 -75.64487 -90.00072 11.56237 103.78229 -5.30865 -6.61825 135.428 74.58084 90.09213 10.87705 -99.68205 -3.35711 10.3318 47.6438 0.21574 1.99522 -19.22677 -8.32884 -5.38966 -3.64703 51.445 0.09077 2.26918 -24.54463 -8.41376 5.15609 3.46116
0.00085 9e-05 0.0003 21.63142 -32.69462 -2.96103 56.49689 0.94807 1.79147 -6.03329 -2.35142 -0.13764 107.54929 -75.66461 -90.0019 11.54869 103.76489 -5.3469 -6.64728 135.68942 74.47148 89.82921 10.8699 -99.683 -3.35638 10.37397 47.65387 0.12333 1.23533 -19.22526 -8.2686 -5.34221 -3.60923 51.46188 0.20401 2.63189 -24.53958 -8.37582 5.11887 3.43711
0.00101 0.00012 0.0005 21.67134 -32.72135 -2.99559 56.4907 0.90673 1.71508 -5.98355 -2.29789 -0.13744 107.40479 -75.68429 -90.00307 11.53496 103.74749 -5.3852 -6.67628 135.9509 74.36213 89.56608 10.86281 -99.68394 -3.35566 10.41617 47.66391 0.03101 0.47611 -19.22374 -8.20842 -5.29485 -3.57148 51.47872 0.31719 2.9944 -24.53454 -8.3379 5.08168 3.41307
0.00116 0.00014 0.00071 21.71137 -32.7481 -3.03025 56.48447 0.86527 1.63849 -5.9337 -2.24426 -0.13725 107.25955 -75.70394 -90.00425 11.5211 103.73 -5.42369 -6.7053 136.21316 74.25249 89.30179 10.85575 -99.68484 -3.35498 10.45853 47.67395 -0.0614 -0.2842 -19.22224 -8.14818 -5.2475 -3.53368 51.49557 0.43062 3.35763 -24.52949 -8.29992 5.04444 3.38899
0.00131 0.00017 0.00091 21.75104 -32.77489 -3.06463 56.47839 0.82414 1.56252 -5.88413 -2.1909 -0.13705 107.11701 -75.72386 -90.00541 11.5078 103.71279 -5.46143 -6.73436 136.47278 74.14371 89.04178 10.84842 -99.68588 -3.35414 10.5003 47.68412 -0.15382 -1.04311 -19.22075 -8.08795 -5.19988 -3.4959 51.51251 0.54344 3.7192 -24.52444 -8.26206 5.00726 3.36501
0.00147 0.00019 0.00111 21.79141 -32.80161 -3.09953 56.47204 0.78238 1.48537 -5.83405 -2.13703 -0.13685 106.96933 -75.74323 -90.00661 11.4934 103.69508 -5.50063 -6.7633 136.7376 74.03331 88.77344 10.84168 -99.68671 -3.35361 10.54322 47.69396 -0.24613 -1.80421 -19.21915 -8.02772 -5.15281 -3.45812 51.52923 0.65738 4.08379 -24.51939 -8.22398 4.96999 3.34085
0.00162 0.00022 0.00132 21.83108 -32.82833 -3.13394 56.46586 0.74122 1.40934 -5.78442 -2.08364 -0.13666 106.82614 -75.76305 -90.00775 11.47997 103.67776 -5.53851 -6.79237 136.99731 73.9244 88.51277 10.83431 -99.68759 -3.35282 10.58506 47.70422 -0.33853 -2.56292 -19.21782 -7.96756 -5.10529 -3.42036 51.54618 0.77025 4.44547 -24.51437 -8.18615 4.93283 3.31687
0.00177 0.00024 0.00152 21.87013 -32.85529 -3.16781 56.46021 0.70069 1.33452 -5.73542 -2.03078 -0.13646 106.6894 -75.78369 -90.00892 11.46789 103.66116 -5.57467 -6.82154 137.25214 73.8173 88.26149 10.82649 -99.68909 -3.35158 10.6257 47.71453 -0.43116 -3.32064 -19.21614 -7.90718 -5.05699 -3.3825 51.56334 0.88201 4.80427 -24.50926 -8.14844 4.89567 3.29303
0.00193 0.00027 0.00173 21.91345 -32.88158 -3.20499 56.4525 0.65626 1.25224 -5.683 -1.97471 -0.13624 106.51844 -75.80041 -90.01024 11.44854 103.64118 -5.62039 -6.84996 137.53913 73.69976 87.95622 10.82224 -99.68873 -3.35253 10.67359 47.72317 -0.52284 -4.08993 -19.21444 -7.84717 -5.01247 -3.34486 51.57907 1.00076 5.18172 -24.50427 -8.10946 4.85811 3.26813
0.00206 0.00029 0.00191 21.94733 -32.90887 -3.23505 56.4485 0.62023 1.18605 -5.63767 -1.92553 -0.1361 106.41782 -75.82487 -90.01102 11.44423 103.62786 -5.64617 -6.88007 137.75567 73.60428 87.7648 10.80985 -99.69117 -3.34912 10.70598 47.7362 -0.61624 -4.83087 -19.21408 -7.78694 -4.96043 -3.30698 51.59793 1.10436 5.51845 -24.4993 -8.07351 4.82166 3.24563
0.00212 0.0003 0.00199 21.95855 -32.94186 -3.24634 56.45935 0.60588 1.16167 -5.61302 -1.89438 -0.13613 106.5253 -75.8742 -90.01023 11.48378 103.63443 -5.61406 -6.91462 137.79465 73.56788 87.88689 10.77874 -99.70585 -3.33088 10.69554 47.75481 -0.71722 -5.52733 -19.20783 -7.72134 -4.88376 -3.26639 51.62448 1.16961 5.75388 -24.49252 -8.04303 4.78605 3.22855
0.00214 0.00031 0.00204 21.95963 -32.97497 -3.25034 56.4726 0.60018 1.15408 -5.59522 -1.87028 -0.13632 106.6992 -75.92993 -90.00753 11.53775 103.6457 -5.56199 -6.95138 137.75748 73.55279 88.12125 10.73812 -99.71912 -3.30838 10.66854 47.7793 -0.81964 -6.18992 -19.20551 -7.65637 -4.80018 -3.22587 51.65429 1.21911 5.94669 -24.48632 -8.01615 4.75196 3.2141
0.00215 0.00033 0.00211 21.96328 -33.00654 -3.25715 56.48232 0.59142 1.14006 -5.57354 -1.84359 -0.13642 106.83472 -75.98122 -90.00754 11.5837 103.65599 -5.52183 -6.98666 137.748 73.53036 88.30589 10.70032 -99.73442 -3.29021 10.65066 47.80501 -0.9192 -6.8453 -19.20662 -7.59423 -4.72254 -3.18673 51.68328 1.2737 6.15198 -24.48082 -7.98942 4.71863 3.19919
0.00228 0.00034 0.00216 21.9757 -33.0458 -3.26603 56.50425 0.57908 1.12017 -5.55529 -1.81447 -0.13636 107.01089 -76.04186 -90.00547 11.63673 103.66847 -5.47188 -7.02199 137.77775 73.50272 88.49289 10.67153 -99.75783 -3.26359 10.63037 47.81326 -1.02706 -7.5929 -19.1824 -7.51902 -4.63352 -3.14186 51.70972 1.33685 6.38549 -24.47039 -7.95495 4.67917 3.18116
0.00214 0.00035 0.00224 21.96721 -33.06728 -3.26891 56.49891 0.57612 1.11756 -5.53129 -1.7919 -0.13694 107.11071 -76.08096 -90.00011 11.67733 103.66864 -5.43476 -7.06019 137.69499 73.48515 88.69202 10.61835 -99.74647 -3.25149 10.60573 47.8606 -1.11926 -8.14433 -19.216 -7.47109 -4.56601 -3.10865 51.74197 1.3786 6.55107 -24.47145 -7.93769 4.65284 3.17027
0.00142 0.0004 0.00242 21.90579 -33.05482 -3.25697 56.43777 0.59794 1.14854 -5.49155 -1.78698 -0.13696 107.04506 -76.08834 -90.01399 11.68864 103.70653 -5.46701 -7.0822 137.42997 73.53925 88.93841 10.53312 -99.79686 -3.30082 10.62244 48.00342 -1.15662 -8.12767 -19.37309 -7.49939 -4.56434 -3.11027 51.79235 1.36375 6.53129 -24.49509 -7.96525 4.66255 3.17845
0.00042 0.00045 0.00265 21.82328 -33.02162 -3.23944 56.34501 0.62869 1.19778 -5.44532 -1.7881 -0.13801 106.88774 -76.06766 -89.99634 11.68482 103.7163 -5.51077 -7.10954 137.03427 73.59306 89.15751 10.42036 -99.78799 -3.36289 10.62791 48.18771 -1.18014 -7.92061 -19.59481 -7.55503 -4.58369 -3.12315 51.84839 1.32825 6.44607 -24.53222 -8.0104 4.68541 3.19374
-0.00055 0.00048 0.00288 21.7489 -32.98791 -3.22424 56.25395 0.65472 1.24576 -5.40101 -1.78567 -0.14015 106.73324 -76.04144 -90.0041 11.68293 103.69363 -5.526 -7.15225 136.62594 73.61548 89.39745 10.29497 -99.69662 -3.40354 10.60397 48.35988 -1.21755 -7.82428 -19.81007 -7.59736 -4.59027 -3.12913 51.89938 1.30298 6.3963 -24.56877 -8.04862 4.70214 3.2058
-0.00112 0.00059 0.00303 21.68026 -32.99608 -3.20888 56.2178 0.68391 1.26635 -5.3618 -1.78714 -0.1359 106.74918 -76.09543 -90.05965 11.70454 103.87005 -5.62527 -7.1276 136.51739 73.77389 89.72018 10.26374 -100.04642 -3.50272 10.71795 48.50271 -1.22347 -7.62719 -19.92877 -7.64308 -4.61011 -3.14257 51.95906 1.27322 6.32129 -24.58084 -8.08225 4.71955 3.21794
-0.00259 0.00054 0.00335 21.59483 -32.91217 -3.1936 56.05806 0.70843 1.34593 -5.30967 -1.78152 -0.14499 106.38227 -75.97214 -89.88951 11.67079 103.61504 -5.56958 -7.23484 135.75644 73.646 89.71893 10.04458 -99.48931 -3.49224 10.5513 48.7179 -1.29099 -7.59195 -20.26382 -7.68869 -4.60751 -3.14321 52.00431 1.24856 6.2834 -24.6484 -8.12983 4.73866 3.23159
-0.00631 9e-05 0.00409 21.46676 -32.57922 -3.17165 55.57939 0.7189 1.60238 -5.22922 -1.75693 -0.19231 105.02279 -75.39315 -90.16192 11.51846 102.27284 -4.93424 -7.79062 133.20844 72.75058 90.10535 9.19104 -96.22389 -3.09825 9.53407 49.11012 -1.53704 -8.07763 -21.17902 -7.72318 -4.53706 -3.10505 51.98876 1.24008 6.36946 -24.85422 -8.20946 4.75917 3.24754
-0.01096 -0.00053 0.005 21.32217 -32.15483 -3.15166 54.97499 0.72425 1.91397 -5.1349 -1.7243 -0.2527 103.2719 -74.62991 -90.04063 11.31092 100.48776 -4.16857 -8.46503 130.01239 71.56281 89.96138 8.17426 -92.09218 -2.60866 8.24923 49.57599 -1.84411 -8.72745 -22.30835 -7.75736 -4.44343 -3.05371 51.96264 1.23858 6.49512 -25.11719 -8.30289 4.78088 3.26476
-0.01528 -0.00112 0.00585 21.18696 -31.77153 -3.13606 54.41815 0.73105 2.18818 -5.04311 -1.69424 -0.30603 101.67357 -73.93551 -89.36781 11.10121 98.83081 -3.56276 -9.02623 127.12447 70.49352 89.18058 7.30975 -88.49592 -2.21282 7.13884 50.0165 -2.12056 -9.2848 -23.34269 -7.79443 -4.36104 -3.0089 51.9535 1.23528 6.59831 -25.36212 -8.39145 4.80221 3.28156
-0.01919 -0.00153 0.00661 21.04578 -31.38726 -3.09746 53.89935 0.74134 2.51528 -4.96699 -1.67002 -0.36415 100.18337 -73.31012 -91.655 10.98244 97.44666 -2.54028 -9.82931 124.17303 69.4843 91.9676 6.1061 -84.28459 -1.60214 5.8063 50.42455 -2.41076 -9.91249 -24.37623 -7.82096 -4.27665 -2.96233 51.89101 1.22341 6.71487 -25.57563 -8.47482 4.82365 3.29811
